<?xml version="1.0" encoding="UTF-8"?>
<!DOCTYPE svg PUBLIC "-//W3C//DTD SVG 1.1//EN" "http://www.w3.org/Graphics/SVG/1.1/DTD/svg11.dtd">
<!-- Creator: CorelDRAW -->
<svg xmlns="http://www.w3.org/2000/svg" xml:space="preserve" width="80.8566mm" height="27.0932mm" version="1.1" style="shape-rendering:geometricPrecision; text-rendering:geometricPrecision; image-rendering:optimizeQuality; fill-rule:evenodd; clip-rule:evenodd"
viewBox="0 0 8085.66 2709.32"
 xmlns:xlink="http://www.w3.org/1999/xlink"
 xmlns:xodm="http://www.corel.com/coreldraw/odm/2003">
 <defs>
  <style type="text/css">
   <![CDATA[
    .str0 {stroke:#22B14C;stroke-width:16.93;stroke-miterlimit:22.9256}
    .fil0 {fill:#22B14C}
    .fil1 {fill:#22B14C;fill-rule:nonzero}
   ]]>
  </style>
 </defs>
 <g id="Слой_x0020_1">
  <metadata id="CorelCorpID_0Corel-Layer"/>
  <polygon class="fil0 str0" points="19.55,1448.24 658.95,2463.79 2577.21,94.17 621.37,1824.38 "/>
  <path class="fil1" d="M2844.92 1131.36l0 252.46 -22.66 0c-14.04,-58.28 -29.41,-100.13 -46.29,-125.54 -16.93,-25.64 -40.3,-45.85 -69.88,-60.86 -16.44,-8.27 -45.36,-12.49 -86.76,-12.49l-66.73 0 0 722.17c0,48.2 2.4,78.28 7.33,90.27 4.89,12 14.66,22.57 28.92,31.5 14.48,9.2 34.03,13.64 58.95,13.64l28.92 0 0 23.99 -460.55 0 0 -23.99 29.14 0c25.37,0 45.85,-4.93 61.44,-14.57 11.11,-6.58 20,-17.64 26.44,-33.37 4.71,-11.06 7.15,-40.2 7.15,-87.47l0 -722.17 -64.06 0c-59.22,0 -102.13,13.42 -129.05,39.98 -37.63,37.14 -61.22,90.05 -71.22,158.91l-25.36 0 0 -252.46 794.27 0zm408.52 511.99l0 259.53c0,51 2.85,82.99 8.85,96.14 5.81,13.19 16.25,23.76 31.36,31.76 14.93,7.73 42.51,11.73 82.58,11.73l0 23.99 -449.88 0 0 -23.99c40.91,0 68.77,-4 83.2,-12.22 14.71,-8 24.97,-18.57 30.7,-31.5 6.04,-12.92 8.93,-44.91 8.93,-95.91l0 -607.91c0,-51.04 -2.89,-82.98 -8.93,-96.18 -5.73,-13.15 -15.99,-23.72 -30.87,-31.72 -14.93,-7.77 -42.52,-11.77 -83.03,-11.77l0 -23.94 385.82 0c127.01,0 218.26,23.94 273.39,71.7 55.45,47.93 83.03,107.64 83.03,179.34 0,60.91 -17.86,112.84 -53.66,156.11 -35.59,43.27 -84.76,72.63 -147.49,88.4 -42.03,11.02 -113.46,16.44 -214,16.44zm0 -458.42l0 404.8c14.4,0.98 25.33,1.42 32.66,1.42 53.17,0 94.36,-16.66 123.05,-50.06 28.7,-33.37 43.14,-85.08 43.14,-155.14 0,-69.61 -14.44,-120.39 -43.14,-152.59 -28.69,-32.21 -71.88,-48.43 -128.83,-48.43l-26.88 0zm1130.44 99.69c-0.45,-50.55 -6.27,-84.85 -17.15,-102.75 -11.11,-17.59 -38.7,-26.57 -82.99,-26.57l-29.36 0 0 -23.94 473.92 0 0 23.94 -30.7 0c-40.96,0 -68.32,8.49 -81.43,25.19 -13.32,16.66 -20.03,53.35 -20.03,110.22l0 616.39c0,57.62 6.71,94.49 20.21,110.97 13.59,16.22 40.74,24.44 81.25,24.44l30.7 0 0 23.99 -473.92 0 0 -23.99 29.36 0c41.18,0 68.11,-8.71 80.99,-25.86 12.7,-17.37 19.15,-53.84 19.15,-109.55l0 -509.64 -312.4 519.06c0,44.91 5.15,76.85 15.59,96.62 10.44,19.51 38.7,29.37 84.54,29.37l30.75 0 0 23.99 -473.93 0 0 -23.99 29.37 0c41.36,0 68.77,-8.71 81.87,-25.86 13.11,-17.37 19.59,-53.84 19.59,-109.55l0 -616.39c0,-56.87 -5.33,-93.56 -15.81,-110.22 -10.48,-16.7 -38.92,-25.19 -85.65,-25.19l-29.37 0 0 -23.94 473.93 0 0 23.94 -30.75 0c-39.8,0 -66.5,9.2 -79.83,27.54 -13.59,18.31 -20.3,54.29 -20.3,107.87l0 513.19 312.4 -519.28zm1035.67 -153.26l295.02 0 0 23.94c-30.47,2.84 -55.22,14.62 -74.54,35.54 -19.33,20.88 -44.47,63.71 -75.21,128.57l-274.99 570.77c-43.18,89.11 -80.28,144.33 -111.64,165.52 -31.41,21.37 -68.81,31.94 -112.17,31.94 -47.14,0 -82.99,-13.64 -107.02,-40.65 -24.04,-27.27 -36.03,-57.61 -36.03,-91.2 0,-27.05 8.66,-49.62 25.81,-67.26 17.1,-17.64 38.03,-26.56 62.73,-26.56 23.59,0 40.69,6.35 51.62,19.28 10.71,12.92 18.48,35.98 22.7,69.56 5.11,39.5 20.44,59.27 46.07,59.27 30.25,0 59.13,-30.79 86.76,-92.41l12.93 -26.56 -316.39 -608.13c-26.93,-51.71 -50.29,-85.12 -70.11,-100.4 -19.81,-15.51 -48.51,-24.44 -86.31,-27.28l0 -23.94 440.51 0 0 23.94 -16.92 0c-51.36,0 -76.99,13.2 -76.99,39.27 0,9.87 4.66,24.48 14.26,43.49l221.59 425.73 167.52 -347.89c23.15,-48.43 34.48,-83.26 34.48,-104.18 0,-15.73 -6.67,-28.65 -19.99,-39 -13.6,-10.09 -48.07,-16 -103.69,-17.42l0 -23.94zm943.31 616.61l241.63 -616.61 358.02 0 0 23.94 -28.7 0c-25.81,0 -46.74,4.98 -62.33,14.84 -10.88,6.57 -19.55,17.37 -26.03,32.92 -4.67,11.28 -7.11,40.42 -7.11,87.65l0 616.39c0,48.2 2.44,78.28 7.11,90.27 4.93,12 14.48,22.57 29.41,31.5 14.66,9.2 34.25,13.64 58.95,13.64l28.7 0 0 23.99 -460.55 0 0 -23.99 28.7 0c25.81,0 46.73,-4.93 62.28,-14.57 10.88,-6.58 19.59,-17.64 26.03,-33.37 4.67,-11.06 7.15,-40.2 7.15,-87.47l0 -692.05 -339.98 851.45 -15.59 0 -344.6 -845.36 0 657.75c0,46.34 1.11,74.77 3.33,85.34 5.77,23.06 18.03,41.85 36.92,56.42 18.92,14.57 48.73,21.86 89.2,21.86l0 23.99 -303.02 0 0 -23.99 9.33 0c19.59,0.49 37.85,-2.8 54.73,-10.09 17.19,-7.28 29.81,-16.92 38.52,-28.92 8.88,-11.99 15.54,-28.92 20.25,-50.77 0.85,-5.2 1.34,-28.7 1.34,-71l0 -591.02c0,-48.16 -2.23,-78.28 -7.11,-90.01 -4.71,-11.99 -14.48,-22.56 -29.41,-31.76 -14.88,-9.15 -34.65,-13.64 -59.4,-13.64l-28.25 0 0 -23.94 360.86 0 249.62 616.61zm951.63 -616.61l456.55 0 0 23.94c-50.07,0.98 -82.1,7.78 -96.09,20.48 -14.04,12.71 -22.53,41.58 -25.37,86.72 100.31,0 176.63,12.26 228.92,36.69 52.29,24.44 97.02,61.35 134.39,110.98 37.18,49.35 55.84,109.28 55.84,180.05 0,88.63 -30.97,166.9 -92.81,234.83 -62.06,67.97 -170.59,101.82 -326.34,101.82 0,32.65 3.51,56.42 10.66,71.7 7.11,15.02 17.82,25.37 31.59,31.23 13.81,5.64 40.29,9.91 79.21,12.71l0 23.99 -456.55 0 0 -23.99c54.06,-1.42 87.87,-10.09 101.91,-26.57 13.99,-16.21 20.87,-46.07 20.87,-89.07 -102.75,0 -183.07,-15.28 -241.13,-45.62 -58.07,-30.57 -102.36,-71.22 -132.61,-121.99 -30.25,-50.78 -45.4,-107.2 -45.4,-169.04 0,-66.06 18.48,-126.48 55.4,-181.25 37.18,-54.78 83.65,-92.85 139.76,-114.26 56.24,-21.37 130.78,-32.21 223.98,-32.21 0,-42.07 -7.95,-70.02 -23.76,-84.36 -16.04,-14.35 -48.96,-21.86 -99.02,-22.84l0 -23.94zm335.09 743.31c43.36,0 78.94,-7.06 107.02,-21.15 28.03,-13.86 51.13,-43.26 69.61,-87.69 18.44,-44.42 27.59,-105.55 27.59,-183.12 0,-62.33 -8.44,-114.75 -25.37,-157.53 -16.7,-42.78 -38.73,-71.92 -65.61,-86.98 -26.92,-15.28 -64.77,-23.01 -113.24,-23.5l0 559.97zm-212.31 -559.97c-56.9,1.91 -97.86,12.48 -122.52,32.21 -24.97,19.5 -44.56,50.06 -58.77,92.18 -14.44,41.8 -21.59,95.42 -21.59,160.77 0,74.99 8.7,132.34 26.03,171.61 17.37,39.27 40.74,66.28 69.66,80.86 28.92,14.34 64.5,21.85 107.19,22.34l0 -559.97z"/>
  <path class="fil1" d="M2243.8 2387.73l0 161.44c0,26.75 1.47,43.49 4.22,50.16 2.98,6.66 8.45,12.52 16.8,17.5 8.3,5.06 19.5,7.55 33.58,7.55l16.75 0 0 13.33 -264.5 0 0 -13.33 16.79 0c14.66,0 26.52,-2.75 35.49,-8.08 6.53,-3.65 11.47,-9.82 14.93,-18.57 2.71,-6.13 4.09,-22.3 4.09,-48.56l0 -342.42c0,-26.79 -1.38,-43.5 -4.09,-50.16 -2.8,-6.66 -8.26,-12.57 -16.57,-17.5 -8.31,-5.11 -19.59,-7.6 -33.85,-7.6l-16.79 0 0 -13.33 264.5 0 0 13.33 -16.75 0c-14.57,0 -26.34,2.75 -35.27,8.09 -6.4,3.68 -11.51,9.81 -15.19,18.57 -2.67,6.13 -4.14,22.34 -4.14,48.6l0 147.31 180.19 0 0 -147.31c0,-26.79 -1.42,-43.5 -4.09,-50.16 -2.79,-6.66 -8.35,-12.57 -16.88,-17.5 -8.44,-5.11 -19.68,-7.6 -33.85,-7.6l-16.48 0 0 -13.33 264.46 0 0 13.33 -16.48 0c-14.84,0 -26.7,2.75 -35.41,8.09 -6.48,3.68 -11.59,9.81 -15.32,18.57 -2.67,6.13 -4.09,22.34 -4.09,48.6l0 342.42c0,26.75 1.42,43.49 4.09,50.16 2.84,6.66 8.3,12.52 16.88,17.5 8.39,5.06 19.68,7.55 33.85,7.55l16.48 0 0 13.33 -264.46 0 0 -13.33 16.48 0c14.79,0 26.7,-2.75 35.41,-8.08 6.53,-3.65 11.59,-9.82 15.32,-18.57 2.67,-6.13 4.09,-22.3 4.09,-48.56l0 -161.44 -180.19 0zm595.52 -239.76l0 211.55 10.08 0c32.34,0 55.71,-10.3 70.28,-30.96 14.44,-20.61 23.77,-51.05 27.72,-91.29l14.57 0 0 271.92 -14.57 0c-2.93,-29.63 -9.33,-53.93 -18.88,-72.72 -9.77,-18.97 -20.83,-31.63 -33.63,-38.16 -12.75,-6.54 -31.32,-9.78 -55.57,-9.78l0 146.03c0,28.56 1.15,45.93 3.55,52.33 2.31,6.4 6.8,11.64 13.33,15.68 6.53,4.04 16.97,6.13 31.41,6.13l30.43 0c47.35,0 85.43,-11.19 114.08,-33.54 28.61,-22.35 49.18,-56.42 61.57,-102.4l13.91 0 -22.88 164.95 -438.56 0 0 -13.33 16.75 0c14.66,0 26.52,-2.75 35.49,-8.08 6.49,-3.65 11.51,-9.82 14.93,-18.57 2.71,-6.13 4.09,-22.3 4.09,-48.56l0 -342.42c0,-23.68 -0.58,-38.17 -1.91,-43.63 -2.45,-9.02 -7.02,-15.95 -13.78,-20.79 -9.46,-7.15 -22.39,-10.84 -38.82,-10.84l-16.75 0 0 -13.33 424.65 0 0 153.62 -14.52 0c-7.2,-37.62 -17.42,-64.55 -30.43,-80.85 -13.06,-16.35 -31.41,-28.34 -55.31,-36.07 -13.95,-4.53 -39.98,-6.89 -78.32,-6.89l-52.91 0zm501.33 -29.81l262.15 0 0 13.33c-28.74,0.53 -47.13,4.31 -55.17,11.37 -8.05,7.07 -12.93,23.1 -14.58,48.2 57.62,0 101.43,6.8 131.46,20.35 30.03,13.59 55.71,34.12 77.21,61.66 21.32,27.41 32.03,60.73 32.03,100.05 0,49.22 -17.77,92.71 -53.27,130.47 -35.67,37.72 -98,56.55 -187.43,56.55 0,18.13 2.05,31.32 6.13,39.81 4.09,8.4 10.22,14.13 18.13,17.37 7.95,3.15 23.15,5.51 45.49,7.06l0 13.33 -262.15 0 0 -13.33c31.05,-0.8 50.47,-5.6 58.51,-14.75 8.04,-9.01 11.99,-25.59 11.99,-49.49 -58.99,0 -105.11,-8.48 -138.47,-25.36 -33.36,-16.97 -58.77,-39.54 -76.19,-67.75 -17.32,-28.21 -26.03,-59.57 -26.03,-93.91 0,-36.7 10.62,-70.28 31.85,-100.71 21.33,-30.44 47.98,-51.58 80.19,-63.44 32.34,-11.91 75.12,-17.91 128.65,-17.91 0,-23.36 -4.62,-38.91 -13.64,-46.91 -9.24,-7.95 -28.12,-12.13 -56.86,-12.66l0 -13.33zm192.4 412.97c24.88,0 45.36,-3.9 61.44,-11.72 16.09,-7.73 29.37,-24.04 39.99,-48.74 10.61,-24.7 15.86,-58.64 15.86,-101.73 0,-34.61 -4.85,-63.75 -14.53,-87.52 -9.64,-23.76 -22.26,-39.93 -37.76,-48.33 -15.42,-8.49 -37.14,-12.79 -65,-13.06l0 311.1zm-121.9 -311.1c-32.69,1.06 -56.19,6.93 -70.41,17.9 -14.31,10.84 -25.54,27.81 -33.72,51.22 -8.31,23.24 -12.39,53 -12.39,89.3 0,41.67 5.02,73.56 14.97,95.38 9.95,21.77 23.37,36.83 39.98,44.91 16.57,7.95 37.05,12.13 61.57,12.39l0 -311.1zm853.98 -101.87l0 140.3 -13.06 0c-8.04,-32.39 -16.88,-55.67 -26.57,-69.75 -9.73,-14.26 -23.1,-25.46 -40.11,-33.85 -9.47,-4.53 -26.08,-6.89 -49.85,-6.89l-38.29 0 0 401.2c0,26.75 1.42,43.49 4.17,50.16 2.85,6.66 8.44,12.52 16.62,17.5 8.35,5.06 19.55,7.55 33.89,7.55l16.62 0 0 13.33 -264.51 0 0 -13.33 16.75 0c14.57,0 26.35,-2.75 35.28,-8.08 6.39,-3.65 11.46,-9.82 15.23,-18.57 2.62,-6.13 4.09,-22.3 4.09,-48.56l0 -401.2 -36.83 0c-33.98,0 -58.64,7.42 -74.1,22.17 -21.59,20.66 -35.14,50.02 -40.87,88.32l-14.57 0 0 -140.3 456.11 0zm236.07 29.81l0 211.55 10.09 0c32.34,0 55.7,-10.3 70.28,-30.96 14.43,-20.61 23.76,-51.05 27.72,-91.29l14.57 0 0 271.92 -14.57 0c-2.94,-29.63 -9.33,-53.93 -18.88,-72.72 -9.73,-18.97 -20.84,-31.63 -33.63,-38.16 -12.75,-6.54 -31.32,-9.78 -55.58,-9.78l0 146.03c0,28.56 1.16,45.93 3.6,52.33 2.27,6.4 6.75,11.64 13.28,15.68 6.53,4.04 16.97,6.13 31.41,6.13l30.43 0c47.36,0 85.43,-11.19 114.08,-33.54 28.61,-22.35 49.18,-56.42 61.58,-102.4l13.9 0 -22.88 164.95 -438.56 0 0 -13.33 16.75 0c14.66,0 26.52,-2.75 35.5,-8.08 6.53,-3.65 11.5,-9.82 14.92,-18.57 2.71,-6.13 4.09,-22.3 4.09,-48.56l0 -342.42c0,-23.68 -0.58,-38.17 -1.91,-43.63 -2.4,-9.02 -7.02,-15.95 -13.77,-20.79 -9.46,-7.15 -22.39,-10.84 -38.83,-10.84l-16.75 0 0 -13.33 424.66 0 0 153.62 -14.53 0c-7.19,-37.62 -17.41,-64.55 -30.43,-80.85 -13.06,-16.35 -31.41,-28.34 -55.31,-36.07 -13.9,-4.53 -39.98,-6.89 -78.32,-6.89l-52.91 0zm814.08 -41.54l0 180.24 -14.57 0c-10.97,-47.27 -31.27,-83.61 -61.17,-108.8 -29.9,-25.23 -63.75,-37.76 -101.55,-37.76 -31.59,0 -60.6,9.28 -87.03,27.94 -26.35,18.7 -45.63,43.14 -57.89,73.3 -15.72,38.65 -23.5,81.61 -23.5,128.88 0,46.51 5.73,88.94 17.1,127.23 11.56,38.12 29.41,67.13 53.8,86.58 24.39,19.6 56.07,29.37 94.94,29.37 31.94,0 61.04,-7.15 87.65,-21.41 26.43,-14.35 54.42,-38.92 83.78,-73.93l0 44.7c-28.34,30.43 -58.02,52.46 -88.8,66.19 -30.74,13.73 -66.68,20.52 -107.82,20.52 -54.15,0 -102.18,-11.1 -144.07,-33.32 -42.07,-22.21 -74.5,-54.19 -97.29,-95.73 -22.83,-41.67 -34.21,-85.92 -34.21,-132.96 0,-49.49 12.66,-96.5 37.94,-140.92 25.32,-44.38 59.44,-78.85 102.45,-103.42 42.95,-24.43 88.58,-36.7 137,-36.7 35.63,0 73.17,7.96 112.8,23.77 23.01,9.29 37.53,13.82 43.67,13.82 8.04,0 14.97,-2.98 20.83,-8.98 5.91,-6.04 9.6,-15.54 11.37,-28.61l14.57 0zm250.78 41.54l0 211.55 10.09 0c32.34,0 55.7,-10.3 70.28,-30.96 14.43,-20.61 23.76,-51.05 27.72,-91.29l14.57 0 0 271.92 -14.57 0c-2.93,-29.63 -9.33,-53.93 -18.88,-72.72 -9.73,-18.97 -20.84,-31.63 -33.63,-38.16 -12.75,-6.54 -31.32,-9.78 -55.58,-9.78l0 146.03c0,28.56 1.16,45.93 3.56,52.33 2.31,6.4 6.79,11.64 13.32,15.68 6.53,4.04 16.97,6.13 31.41,6.13l30.43 0c47.36,0 85.43,-11.19 114.09,-33.54 28.6,-22.35 49.17,-56.42 61.57,-102.4l13.9 0 -22.88 164.95 -438.56 0 0 -13.33 16.75 0c14.66,0 26.52,-2.75 35.5,-8.08 6.53,-3.65 11.5,-9.82 14.92,-18.57 2.71,-6.13 4.09,-22.3 4.09,-48.56l0 -342.42c0,-23.68 -0.58,-38.17 -1.91,-43.63 -2.44,-9.02 -7.02,-15.95 -13.77,-20.79 -9.46,-7.15 -22.39,-10.84 -38.83,-10.84l-16.75 0 0 -13.33 424.66 0 0 153.62 -14.53 0c-7.19,-37.62 -17.41,-64.55 -30.43,-80.85 -13.06,-16.35 -31.41,-28.34 -55.31,-36.07 -13.9,-4.53 -39.98,-6.89 -78.32,-6.89l-52.91 0zm509.78 254.64l0 144.21c0,28.34 1.64,46.11 5.1,53.4 3.34,7.33 9.33,13.19 18.04,17.63 8.53,4.31 24.35,6.53 47.36,6.53l0 13.33 -258.33 0 0 -13.33c23.5,0 39.45,-2.22 47.75,-6.79 8.49,-4.45 14.35,-10.31 17.64,-17.51 3.51,-7.15 5.15,-24.92 5.15,-53.26l0 -337.76c0,-28.3 -1.64,-46.07 -5.15,-53.4 -3.29,-7.33 -9.15,-13.2 -17.72,-17.64 -8.53,-4.31 -24.44,-6.53 -47.67,-6.53l0 -13.33 221.54 0c72.95,0 125.33,13.33 157.05,39.85 31.8,26.66 47.62,59.8 47.62,99.65 0,33.85 -10.22,62.68 -30.79,86.71 -20.48,24.04 -48.64,40.39 -84.67,49.14 -24.17,6.13 -65.22,9.1 -122.92,9.1zm0 -254.64l0 224.88c8.3,0.53 14.57,0.8 18.79,0.8 30.47,0 54.15,-9.29 70.59,-27.85 16.52,-18.53 24.83,-47.27 24.83,-86.19 0,-38.65 -8.31,-66.86 -24.83,-84.76 -16.44,-17.9 -41.23,-26.88 -73.97,-26.88l-15.41 0zm601.46 214.04c48.42,11.51 82.54,25.46 102.09,41.8 28.08,23.24 42.16,53.4 42.16,90.5 0,39.05 -15.33,71.43 -46.11,97.02 -37.72,30.96 -92.54,46.38 -164.33,46.38l-258.11 0 0 -13.33c23.55,0 39.54,-2.22 47.8,-6.79 8.44,-4.45 14.31,-10.31 17.68,-17.51 3.42,-7.15 5.07,-24.92 5.07,-53.26l0 -337.76c0,-28.3 -1.65,-46.07 -5.07,-53.4 -3.37,-7.33 -9.37,-13.2 -17.81,-17.64 -8.53,-4.31 -24.35,-6.53 -47.67,-6.53l0 -13.33 243.54 0c58.24,0 99.42,5.38 123.72,15.95 24.21,10.57 43.27,26.39 57.35,47.4 13.91,21.02 20.93,43.49 20.93,67.13 0,25.1 -8.93,47.27 -26.84,66.86 -17.85,19.46 -49.31,35 -94.4,46.51zm-136.47 -10.31c35.76,0 62.24,-4.04 79.25,-12.3 16.97,-8.09 30.03,-19.59 39.05,-34.48 9.11,-14.74 13.68,-33.67 13.68,-56.68 0,-22.97 -4.44,-41.76 -13.41,-56.42 -8.98,-14.75 -21.73,-25.86 -38.47,-33.54 -16.57,-7.73 -43.27,-11.37 -80.1,-11.11l0 204.53zm0 29.77l0 166.37 0 19.23c0,13.69 3.33,24.13 10.08,31.06 6.8,7.06 16.75,10.57 30.03,10.57 19.68,0 37.68,-4.58 54.34,-13.55 16.61,-9.02 29.23,-22.08 38.07,-39.31 8.79,-17.11 13.24,-36.34 13.24,-57.36 0,-24.16 -4.93,-45.84 -14.8,-65.03 -9.95,-19.2 -24.52,-32.79 -43.93,-40.61 -19.42,-7.86 -48.43,-11.64 -87.03,-11.37zm695.38 -178.15c-0.27,-28.07 -3.56,-47.13 -9.82,-57.08 -6.4,-9.77 -22.26,-14.75 -47.67,-14.75l-16.88 0 0 -13.33 272.15 0 0 13.33 -17.64 0c-23.46,0 -39.18,4.71 -46.73,13.99 -7.69,9.24 -11.51,29.64 -11.51,61.27l0 342.42c0,31.99 3.82,52.51 11.59,61.62 7.87,9.02 23.42,13.59 46.65,13.59l17.64 0 0 13.33 -272.15 0 0 -13.33 16.88 0c23.64,0 39.1,-4.84 46.56,-14.35 7.24,-9.68 10.93,-29.89 10.93,-60.86l0 -283.16 -179.34 288.36c0,24.97 2.93,42.74 8.97,53.71 6,10.84 22.17,16.3 48.51,16.3l17.59 0 0 13.33 -272.05 0 0 -13.33 16.83 0c23.73,0 39.45,-4.84 47.05,-14.35 7.51,-9.68 11.19,-29.89 11.19,-60.86l0 -342.42c0,-31.63 -3.02,-52.03 -9.06,-61.27 -6,-9.28 -22.34,-13.99 -49.18,-13.99l-16.83 0 0 -13.33 272.05 0 0 13.33 -17.59 0c-22.83,0 -38.2,5.11 -45.89,15.28 -7.77,10.18 -11.59,30.17 -11.59,59.98l0 285.07 179.34 -288.5zm719.68 -96.89l0 180.24 -14.57 0c-10.98,-47.27 -31.28,-83.61 -61.18,-108.8 -29.89,-25.23 -63.74,-37.76 -101.55,-37.76 -31.54,0 -60.6,9.28 -87.03,27.94 -26.34,18.7 -45.62,43.14 -57.88,73.3 -15.73,38.65 -23.5,81.61 -23.5,128.88 0,46.51 5.73,88.94 17.1,127.23 11.55,38.12 29.41,67.13 53.84,86.58 24.35,19.6 56.02,29.37 94.89,29.37 31.94,0 61.04,-7.15 87.65,-21.41 26.44,-14.35 54.42,-38.92 83.79,-73.93l0 44.7c-28.34,30.43 -58.02,52.46 -88.76,66.19 -30.79,13.73 -66.73,20.52 -107.82,20.52 -54.2,0 -102.22,-11.1 -144.11,-33.32 -42.07,-22.21 -74.51,-54.19 -97.29,-95.73 -22.84,-41.67 -34.17,-85.92 -34.17,-132.96 0,-49.49 12.62,-96.5 37.94,-140.92 25.28,-44.38 59.4,-78.85 102.4,-103.42 42.96,-24.43 88.58,-36.7 137.01,-36.7 35.62,0 73.16,7.96 112.79,23.77 23.01,9.29 37.54,13.82 43.67,13.82 8.04,0 14.97,-2.98 20.83,-8.98 5.91,-6.04 9.6,-15.54 11.38,-28.61l14.57 0z"/>
 </g>
</svg>
