<?xml version="1.0" encoding="UTF-8"?>
<!DOCTYPE svg PUBLIC "-//W3C//DTD SVG 1.1//EN" "http://www.w3.org/Graphics/SVG/1.1/DTD/svg11.dtd">
<!-- Creator: CorelDRAW -->
<svg xmlns="http://www.w3.org/2000/svg" xml:space="preserve" width="86.6986mm" height="86.6986mm" version="1.1" style="shape-rendering:geometricPrecision; text-rendering:geometricPrecision; image-rendering:optimizeQuality; fill-rule:evenodd; clip-rule:evenodd"
viewBox="0 0 8669.86 8669.86"
 xmlns:xlink="http://www.w3.org/1999/xlink"
 xmlns:xodm="http://www.corel.com/coreldraw/odm/2003">
 <defs>
  <style type="text/css">
   <![CDATA[
    .str0 {stroke:#22B14C;stroke-width:16.93;stroke-miterlimit:22.9256}
    .fil0 {fill:#22B14C}
    .fil1 {fill:#22B14C;fill-rule:nonzero}
   ]]>
  </style>
 </defs>
 <g id="Слой_x0020_1">
  <metadata id="CorelCorpID_0Corel-Layer"/>
  <g id="_2616931632064">
   <polygon class="fil0 str0" points="184.7,1660.13 824.1,2675.67 2742.35,306.07 786.52,2036.27 "/>
   <path class="fil1" d="M3010.05 1343.25l0 252.46 -22.65 0c-14.04,-58.28 -29.41,-100.13 -46.29,-125.54 -16.93,-25.63 -40.3,-45.85 -69.88,-60.86 -16.44,-8.27 -45.36,-12.49 -86.77,-12.49l-66.72 0 0 722.17c0,48.2 2.4,78.27 7.33,90.27 4.89,11.99 14.66,22.57 28.92,31.5 14.48,9.19 34.03,13.63 58.95,13.63l28.92 0 0 23.99 -460.55 0 0 -23.99 29.14 0c25.37,0 45.85,-4.93 61.44,-14.57 11.11,-6.57 19.99,-17.63 26.44,-33.36 4.71,-11.06 7.15,-40.2 7.15,-87.47l0 -722.17 -64.06 0c-59.22,0 -102.13,13.42 -129.05,39.99 -37.63,37.13 -61.22,90.04 -71.22,158.9l-25.36 0 0 -252.46 794.26 0zm408.53 511.99l0 259.53c0,51 2.84,82.98 8.84,96.13 5.82,13.2 16.26,23.77 31.36,31.77 14.93,7.73 42.52,11.72 82.59,11.72l0 23.99 -449.89 0 0 -23.99c40.92,0 68.77,-3.99 83.21,-12.21 14.7,-8 24.97,-18.57 30.7,-31.5 6.04,-12.93 8.93,-44.91 8.93,-95.91l0 -607.91c0,-51.04 -2.89,-82.98 -8.93,-96.18 -5.73,-13.15 -16,-23.72 -30.88,-31.71 -14.93,-7.78 -42.51,-11.78 -83.03,-11.78l0 -23.94 385.83 0c127.01,0 218.26,23.94 273.39,71.7 55.44,47.93 83.03,107.64 83.03,179.34 0,60.91 -17.86,112.84 -53.67,156.11 -35.58,43.27 -84.76,72.63 -147.49,88.4 -42.02,11.02 -113.46,16.44 -213.99,16.44zm0 -458.42l0 404.8c14.39,0.98 25.32,1.42 32.65,1.42 53.18,0 94.36,-16.66 123.06,-50.07 28.7,-33.36 43.13,-85.07 43.13,-155.13 0,-69.61 -14.43,-120.39 -43.13,-152.59 -28.7,-32.21 -71.88,-48.43 -128.83,-48.43l-26.88 0zm1130.42 99.69c-0.44,-50.55 -6.26,-84.85 -17.14,-102.75 -11.11,-17.59 -38.7,-26.57 -82.99,-26.57l-29.36 0 0 -23.94 473.92 0 0 23.94 -30.7 0c-40.96,0 -68.33,8.49 -81.43,25.19 -13.33,16.66 -20.04,53.36 -20.04,110.22l0 616.39c0,57.62 6.71,94.49 20.22,110.97 13.59,16.22 40.73,24.43 81.25,24.43l30.7 0 0 23.99 -473.92 0 0 -23.99 29.36 0c41.18,0 68.1,-8.7 80.99,-25.85 12.7,-17.37 19.14,-53.84 19.14,-109.55l0 -509.64 -312.39 519.06c0,44.91 5.15,76.85 15.59,96.62 10.44,19.5 38.7,29.36 84.54,29.36l30.75 0 0 23.99 -473.92 0 0 -23.99 29.36 0c41.36,0 68.77,-8.7 81.87,-25.85 13.11,-17.37 19.6,-53.84 19.6,-109.55l0 -616.39c0,-56.86 -5.34,-93.56 -15.82,-110.22 -10.48,-16.7 -38.92,-25.19 -85.65,-25.19l-29.36 0 0 -23.94 473.92 0 0 23.94 -30.75 0c-39.8,0 -66.5,9.2 -79.83,27.55 -13.59,18.3 -20.3,54.28 -20.3,107.86l0 513.19 312.39 -519.28zm1035.67 -153.26l295.02 0 0 23.94c-30.47,2.85 -55.22,14.62 -74.54,35.54 -19.32,20.88 -44.47,63.71 -75.21,128.57l-274.99 570.76c-43.18,89.12 -80.27,144.34 -111.64,165.53 -31.4,21.37 -68.81,31.94 -112.17,31.94 -47.13,0 -82.98,-13.64 -107.02,-40.65 -24.03,-27.28 -36.03,-57.62 -36.03,-91.2 0,-27.06 8.67,-49.63 25.82,-67.26 17.1,-17.64 38.02,-26.57 62.72,-26.57 23.59,0 40.7,6.36 51.62,19.28 10.71,12.93 18.48,35.99 22.7,69.57 5.11,39.49 20.44,59.26 46.07,59.26 30.26,0 59.13,-30.78 86.76,-92.4l12.93 -26.57 -316.39 -608.12c-26.92,-51.71 -50.29,-85.12 -70.1,-100.4 -19.81,-15.5 -48.51,-24.43 -86.32,-27.28l0 -23.94 440.51 0 0 23.94 -16.92 0c-51.36,0 -76.99,13.2 -76.99,39.27 0,9.87 4.67,24.48 14.26,43.5l221.59 425.72 167.53 -347.89c23.14,-48.43 34.47,-83.25 34.47,-104.18 0,-15.72 -6.66,-28.65 -19.99,-39 -13.6,-10.09 -48.07,-16 -103.69,-17.42l0 -23.94zm943.31 616.61l241.63 -616.61 358.01 0 0 23.94 -28.7 0c-25.81,0 -46.73,4.98 -62.32,14.84 -10.89,6.58 -19.55,17.37 -26.04,32.92 -4.66,11.28 -7.1,40.43 -7.1,87.65l0 616.39c0,48.2 2.44,78.27 7.1,90.27 4.93,11.99 14.49,22.57 29.41,31.5 14.66,9.19 34.25,13.63 58.95,13.63l28.7 0 0 23.99 -460.55 0 0 -23.99 28.7 0c25.81,0 46.74,-4.93 62.28,-14.57 10.89,-6.57 19.6,-17.63 26.04,-33.36 4.66,-11.06 7.15,-40.2 7.15,-87.47l0 -692.05 -339.98 851.44 -15.59 0 -344.6 -845.35 0 657.75c0,46.33 1.11,74.76 3.33,85.34 5.77,23.05 18.03,41.85 36.91,56.42 18.93,14.57 48.74,21.85 89.21,21.85l0 23.99 -303.02 0 0 -23.99 9.33 0c19.59,0.49 37.85,-2.8 54.73,-10.08 17.19,-7.29 29.81,-16.93 38.52,-28.92 8.88,-12 15.54,-28.92 20.25,-50.78 0.85,-5.2 1.34,-28.7 1.34,-70.99l0 -591.02c0,-48.16 -2.23,-78.28 -7.11,-90.01 -4.71,-11.99 -14.48,-22.56 -29.41,-31.76 -14.88,-9.15 -34.65,-13.64 -59.4,-13.64l-28.25 0 0 -23.94 360.86 0 249.62 616.61zm951.62 -616.61l456.55 0 0 23.94c-50.07,0.98 -82.1,7.78 -96.09,20.48 -14.04,12.71 -22.53,41.58 -25.37,86.72 100.31,0 176.63,12.26 228.92,36.69 52.29,24.44 97.02,61.35 134.38,110.98 37.19,49.35 55.85,109.28 55.85,180.05 0,88.62 -30.97,166.9 -92.81,234.83 -62.06,67.97 -170.59,101.82 -326.34,101.82 0,32.65 3.51,56.42 10.66,71.7 7.11,15.01 17.82,25.36 31.59,31.23 13.81,5.64 40.29,9.9 79.21,12.7l0 23.99 -456.55 0 0 -23.99c54.06,-1.42 87.87,-10.08 101.91,-26.56 13.99,-16.22 20.88,-46.07 20.88,-89.07 -102.76,0 -183.08,-15.29 -241.14,-45.63 -58.06,-30.56 -102.35,-71.21 -132.61,-121.99 -30.25,-50.77 -45.4,-107.19 -45.4,-169.03 0,-66.06 18.48,-126.48 55.4,-181.25 37.18,-54.78 83.65,-92.85 139.76,-114.26 56.24,-21.37 130.78,-32.21 223.99,-32.21 0,-42.07 -7.96,-70.01 -23.77,-84.36 -16.04,-14.35 -48.96,-21.86 -99.02,-22.84l0 -23.94zm335.09 743.31c43.36,0 78.94,-7.07 107.02,-21.15 28.03,-13.86 51.13,-43.27 69.61,-87.69 18.44,-44.43 27.59,-105.55 27.59,-183.12 0,-62.33 -8.44,-114.75 -25.37,-157.53 -16.7,-42.78 -38.73,-71.92 -65.61,-86.98 -26.92,-15.28 -64.77,-23.01 -113.24,-23.5l0 559.97zm-212.3 -559.97c-56.91,1.91 -97.87,12.48 -122.53,32.21 -24.96,19.5 -44.55,50.06 -58.77,92.18 -14.44,41.8 -21.59,95.42 -21.59,160.77 0,74.99 8.71,132.34 26.03,171.61 17.37,39.27 40.74,66.28 69.66,80.85 28.92,14.35 64.5,21.86 107.2,22.35l0 -559.97z"/>
   <path class="fil1" d="M2408.94 2599.62l0 161.43c0,26.75 1.47,43.5 4.22,50.16 2.98,6.66 8.45,12.53 16.8,17.5 8.3,5.07 19.5,7.56 33.58,7.56l16.75 0 0 13.32 -264.5 0 0 -13.32 16.79 0c14.66,0 26.52,-2.76 35.49,-8.09 6.53,-3.64 11.47,-9.82 14.93,-18.57 2.71,-6.13 4.09,-22.3 4.09,-48.56l0 -342.42c0,-26.79 -1.38,-43.49 -4.09,-50.15 -2.8,-6.67 -8.26,-12.58 -16.57,-17.51 -8.31,-5.11 -19.59,-7.59 -33.85,-7.59l-16.79 0 0 -13.33 264.5 0 0 13.33 -16.75 0c-14.57,0 -26.34,2.75 -35.27,8.08 -6.4,3.69 -11.51,9.82 -15.19,18.57 -2.67,6.13 -4.14,22.35 -4.14,48.6l0 147.31 180.19 0 0 -147.31c0,-26.79 -1.42,-43.49 -4.09,-50.15 -2.8,-6.67 -8.35,-12.58 -16.88,-17.51 -8.44,-5.11 -19.68,-7.59 -33.85,-7.59l-16.48 0 0 -13.33 264.46 0 0 13.33 -16.48 0c-14.84,0 -26.7,2.75 -35.41,8.08 -6.49,3.69 -11.59,9.82 -15.33,18.57 -2.66,6.13 -4.08,22.35 -4.08,48.6l0 342.42c0,26.75 1.42,43.5 4.08,50.16 2.85,6.66 8.31,12.53 16.88,17.5 8.4,5.07 19.68,7.56 33.86,7.56l16.48 0 0 13.32 -264.46 0 0 -13.32 16.48 0c14.79,0 26.7,-2.76 35.41,-8.09 6.53,-3.64 11.59,-9.82 15.32,-18.57 2.67,-6.13 4.09,-22.3 4.09,-48.56l0 -161.43 -180.19 0zm595.51 -239.76l0 211.55 10.09 0c32.34,0 55.71,-10.31 70.28,-30.97 14.44,-20.61 23.77,-51.04 27.72,-91.29l14.57 0 0 271.92 -14.57 0c-2.93,-29.63 -9.33,-53.93 -18.88,-72.72 -9.77,-18.97 -20.84,-31.63 -33.63,-38.16 -12.75,-6.53 -31.32,-9.77 -55.58,-9.77l0 146.02c0,28.56 1.16,45.93 3.56,52.33 2.31,6.4 6.8,11.64 13.33,15.68 6.53,4.05 16.97,6.13 31.4,6.13l30.43 0c47.36,0 85.43,-11.19 114.09,-33.54 28.61,-22.34 49.17,-56.42 61.57,-102.4l13.9 0 -22.87 164.95 -438.56 0 0 -13.32 16.74 0c14.66,0 26.53,-2.76 35.5,-8.09 6.49,-3.64 11.51,-9.82 14.93,-18.57 2.71,-6.13 4.08,-22.3 4.08,-48.56l0 -342.42c0,-23.68 -0.57,-38.16 -1.91,-43.62 -2.44,-9.02 -7.02,-15.95 -13.77,-20.79 -9.46,-7.16 -22.39,-10.84 -38.83,-10.84l-16.74 0 0 -13.33 424.65 0 0 153.62 -14.53 0c-7.19,-37.63 -17.41,-64.55 -30.43,-80.85 -13.06,-16.35 -31.41,-28.35 -55.31,-36.08 -13.95,-4.53 -39.98,-6.88 -78.32,-6.88l-52.91 0zm501.33 -29.81l262.15 0 0 13.33c-28.74,0.53 -47.13,4.3 -55.17,11.37 -8.04,7.06 -12.93,23.1 -14.57,48.2 57.62,0 101.42,6.8 131.45,20.35 30.03,13.59 55.71,34.11 77.21,61.66 21.32,27.41 32.03,60.72 32.03,100.04 0,49.22 -17.77,92.71 -53.27,130.48 -35.67,37.71 -98,56.55 -187.42,56.55 0,18.12 2.04,31.32 6.13,39.8 4.08,8.4 10.21,14.13 18.12,17.37 7.95,3.16 23.15,5.51 45.49,7.07l0 13.32 -262.15 0 0 -13.32c31.06,-0.8 50.47,-5.6 58.51,-14.75 8.04,-9.02 12,-25.59 12,-49.49 -59,0 -105.11,-8.49 -138.48,-25.37 -33.36,-16.97 -58.77,-39.54 -76.18,-67.75 -17.33,-28.21 -26.04,-59.57 -26.04,-93.91 0,-36.69 10.62,-70.28 31.86,-100.71 21.32,-30.43 47.98,-51.58 80.18,-63.44 32.34,-11.9 75.12,-17.9 128.66,-17.9 0,-23.37 -4.62,-38.92 -13.64,-46.91 -9.24,-7.96 -28.12,-12.13 -56.87,-12.66l0 -13.33zm192.41 412.97c24.87,0 45.35,-3.91 61.44,-11.73 16.08,-7.73 29.36,-24.03 39.98,-48.73 10.62,-24.7 15.86,-58.64 15.86,-101.74 0,-34.6 -4.84,-63.74 -14.53,-87.51 -9.64,-23.77 -22.26,-39.94 -37.76,-48.34 -15.42,-8.48 -37.14,-12.79 -64.99,-13.06l0 311.11zm-121.9 -311.11c-32.7,1.07 -56.2,6.93 -70.42,17.91 -14.3,10.84 -25.54,27.81 -33.71,51.22 -8.31,23.23 -12.4,53 -12.4,89.29 0,41.67 5.02,73.57 14.97,95.38 9.95,21.77 23.37,36.83 39.98,44.91 16.57,7.96 37.05,12.13 61.58,12.4l0 -311.11zm853.97 -101.86l0 140.29 -13.06 0c-8.04,-32.38 -16.88,-55.66 -26.57,-69.75 -9.73,-14.26 -23.1,-25.45 -40.11,-33.85 -9.47,-4.53 -26.08,-6.88 -49.85,-6.88l-38.29 0 0 401.19c0,26.75 1.42,43.5 4.17,50.16 2.85,6.66 8.44,12.53 16.62,17.5 8.35,5.07 19.54,7.56 33.89,7.56l16.62 0 0 13.32 -264.5 0 0 -13.32 16.74 0c14.57,0 26.35,-2.76 35.28,-8.09 6.39,-3.64 11.46,-9.82 15.23,-18.57 2.63,-6.13 4.09,-22.3 4.09,-48.56l0 -401.19 -36.83 0c-33.98,0 -58.64,7.42 -74.1,22.17 -21.59,20.65 -35.14,50.02 -40.87,88.31l-14.57 0 0 -140.29 456.11 0zm236.07 29.81l0 211.55 10.08 0c32.34,0 55.71,-10.31 70.28,-30.97 14.44,-20.61 23.77,-51.04 27.72,-91.29l14.57 0 0 271.92 -14.57 0c-2.93,-29.63 -9.33,-53.93 -18.88,-72.72 -9.73,-18.97 -20.83,-31.63 -33.63,-38.16 -12.75,-6.53 -31.32,-9.77 -55.57,-9.77l0 146.02c0,28.56 1.15,45.93 3.6,52.33 2.26,6.4 6.75,11.64 13.28,15.68 6.53,4.05 16.97,6.13 31.41,6.13l30.43 0c47.36,0 85.43,-11.19 114.08,-33.54 28.61,-22.34 49.18,-56.42 61.57,-102.4l13.91 0 -22.88 164.95 -438.56 0 0 -13.32 16.75 0c14.66,0 26.52,-2.76 35.49,-8.09 6.54,-3.64 11.51,-9.82 14.93,-18.57 2.71,-6.13 4.09,-22.3 4.09,-48.56l0 -342.42c0,-23.68 -0.58,-38.16 -1.91,-43.62 -2.4,-9.02 -7.02,-15.95 -13.77,-20.79 -9.47,-7.16 -22.39,-10.84 -38.83,-10.84l-16.75 0 0 -13.33 424.65 0 0 153.62 -14.52 0c-7.2,-37.63 -17.42,-64.55 -30.43,-80.85 -13.06,-16.35 -31.41,-28.35 -55.31,-36.08 -13.91,-4.53 -39.98,-6.88 -78.32,-6.88l-52.91 0zm814.08 -41.54l0 180.23 -14.57 0c-10.98,-47.27 -31.28,-83.61 -61.18,-108.8 -29.89,-25.23 -63.75,-37.76 -101.55,-37.76 -31.59,0 -60.6,9.29 -87.03,27.95 -26.34,18.7 -45.62,43.13 -57.88,73.3 -15.73,38.65 -23.5,81.61 -23.5,128.87 0,46.52 5.73,88.94 17.1,127.23 11.55,38.12 29.41,67.13 53.8,86.59 24.39,19.59 56.06,29.36 94.93,29.36 31.94,0 61.04,-7.15 87.65,-21.41 26.43,-14.35 54.42,-38.92 83.79,-73.92l0 44.69c-28.35,30.43 -58.02,52.46 -88.81,66.19 -30.74,13.73 -66.68,20.52 -107.82,20.52 -54.15,0 -102.17,-11.1 -144.06,-33.31 -42.07,-22.22 -74.5,-54.2 -97.29,-95.74 -22.84,-41.67 -34.21,-85.92 -34.21,-132.96 0,-49.49 12.66,-96.49 37.94,-140.91 25.32,-44.38 59.44,-78.86 102.44,-103.43 42.96,-24.43 88.58,-36.69 137.01,-36.69 35.62,0 73.16,7.95 112.79,23.77 23.01,9.28 37.54,13.81 43.67,13.81 8.04,0 14.97,-2.97 20.83,-8.97 5.91,-6.04 9.6,-15.55 11.38,-28.61l14.57 0zm250.77 41.54l0 211.55 10.09 0c32.34,0 55.71,-10.31 70.28,-30.97 14.44,-20.61 23.76,-51.04 27.72,-91.29l14.57 0 0 271.92 -14.57 0c-2.93,-29.63 -9.33,-53.93 -18.88,-72.72 -9.73,-18.97 -20.84,-31.63 -33.63,-38.16 -12.75,-6.53 -31.32,-9.77 -55.58,-9.77l0 146.02c0,28.56 1.16,45.93 3.56,52.33 2.31,6.4 6.79,11.64 13.32,15.68 6.53,4.05 16.97,6.13 31.41,6.13l30.43 0c47.36,0 85.43,-11.19 114.09,-33.54 28.6,-22.34 49.17,-56.42 61.57,-102.4l13.9 0 -22.88 164.95 -438.55 0 0 -13.32 16.74 0c14.66,0 26.53,-2.76 35.5,-8.09 6.53,-3.64 11.5,-9.82 14.93,-18.57 2.71,-6.13 4.08,-22.3 4.08,-48.56l0 -342.42c0,-23.68 -0.57,-38.16 -1.91,-43.62 -2.44,-9.02 -7.02,-15.95 -13.77,-20.79 -9.46,-7.16 -22.39,-10.84 -38.83,-10.84l-16.74 0 0 -13.33 424.65 0 0 153.62 -14.53 0c-7.19,-37.63 -17.41,-64.55 -30.43,-80.85 -13.06,-16.35 -31.41,-28.35 -55.31,-36.08 -13.9,-4.53 -39.98,-6.88 -78.32,-6.88l-52.91 0zm509.77 254.64l0 144.2c0,28.34 1.65,46.11 5.11,53.4 3.33,7.33 9.33,13.19 18.04,17.63 8.53,4.31 24.34,6.54 47.36,6.54l0 13.32 -258.33 0 0 -13.32c23.5,0 39.45,-2.23 47.75,-6.8 8.49,-4.44 14.35,-10.31 17.64,-17.51 3.51,-7.15 5.15,-24.92 5.15,-53.26l0 -337.76c0,-28.3 -1.64,-46.07 -5.15,-53.4 -3.29,-7.33 -9.15,-13.19 -17.73,-17.63 -8.52,-4.31 -24.43,-6.53 -47.66,-6.53l0 -13.33 221.54 0c72.95,0 125.32,13.33 157.04,39.85 31.81,26.65 47.63,59.79 47.63,99.64 0,33.85 -10.22,62.68 -30.79,86.72 -20.48,24.03 -48.65,40.38 -84.67,49.13 -24.17,6.13 -65.22,9.11 -122.93,9.11zm0 -254.64l0 224.87c8.31,0.54 14.58,0.8 18.8,0.8 30.47,0 54.15,-9.28 70.59,-27.85 16.52,-18.53 24.83,-47.27 24.83,-86.18 0,-38.65 -8.31,-66.86 -24.83,-84.77 -16.44,-17.9 -41.23,-26.87 -73.97,-26.87l-15.42 0zm601.47 214.03c48.42,11.51 82.54,25.46 102.08,41.81 28.08,23.23 42.16,53.4 42.16,90.49 0,39.05 -15.32,71.43 -46.11,97.02 -37.72,30.97 -92.54,46.38 -164.33,46.38l-258.1 0 0 -13.32c23.54,0 39.54,-2.23 47.8,-6.8 8.44,-4.44 14.3,-10.31 17.68,-17.51 3.42,-7.15 5.06,-24.92 5.06,-53.26l0 -337.76c0,-28.3 -1.64,-46.07 -5.06,-53.4 -3.38,-7.33 -9.37,-13.19 -17.81,-17.63 -8.53,-4.31 -24.35,-6.53 -47.67,-6.53l0 -13.33 243.53 0c58.24,0 99.43,5.37 123.73,15.95 24.21,10.57 43.26,26.38 57.35,47.4 13.9,21.01 20.92,43.49 20.92,67.12 0,25.1 -8.93,47.27 -26.83,66.86 -17.86,19.46 -49.31,35.01 -94.4,46.51zm-136.48 -10.3c35.77,0 62.24,-4.04 79.26,-12.31 16.97,-8.08 30.03,-19.59 39.05,-34.47 9.1,-14.75 13.68,-33.67 13.68,-56.69 0,-22.96 -4.44,-41.76 -13.42,-56.42 -8.97,-14.74 -21.72,-25.85 -38.47,-33.54 -16.57,-7.73 -43.27,-11.37 -80.1,-11.1l0 204.53zm0 29.76l0 166.37 0 19.24c0,13.68 3.34,24.12 10.09,31.05 6.8,7.06 16.75,10.57 30.03,10.57 19.68,0 37.67,-4.57 54.33,-13.55 16.62,-9.01 29.23,-22.08 38.07,-39.31 8.8,-17.11 13.24,-36.34 13.24,-57.35 0,-24.17 -4.93,-45.85 -14.79,-65.04 -9.95,-19.19 -24.52,-32.79 -43.94,-40.61 -19.41,-7.86 -48.42,-11.63 -87.03,-11.37zm695.38 -178.14c-0.27,-28.08 -3.55,-47.13 -9.82,-57.09 -6.39,-9.77 -22.25,-14.74 -47.66,-14.74l-16.89 0 0 -13.33 272.15 0 0 13.33 -17.64 0c-23.45,0 -39.18,4.7 -46.73,13.99 -7.69,9.24 -11.51,29.63 -11.51,61.26l0 342.42c0,31.99 3.82,52.51 11.6,61.62 7.86,9.02 23.41,13.6 46.64,13.6l17.64 0 0 13.32 -272.15 0 0 -13.32 16.89 0c23.63,0 39.09,-4.85 46.55,-14.35 7.24,-9.69 10.93,-29.9 10.93,-60.87l0 -283.16 -179.34 288.36c0,24.97 2.93,42.74 8.97,53.71 6,10.84 22.17,16.31 48.51,16.31l17.6 0 0 13.32 -272.06 0 0 -13.32 16.84 0c23.72,0 39.45,-4.85 47.04,-14.35 7.51,-9.69 11.2,-29.9 11.2,-60.87l0 -342.42c0,-31.63 -3.02,-52.02 -9.06,-61.26 -6,-9.29 -22.35,-13.99 -49.18,-13.99l-16.84 0 0 -13.33 272.06 0 0 13.33 -17.6 0c-22.83,0 -38.2,5.1 -45.89,15.28 -7.77,10.17 -11.59,30.16 -11.59,59.97l0 285.07 179.34 -288.49zm719.68 -96.89l0 180.23 -14.57 0c-10.98,-47.27 -31.28,-83.61 -61.18,-108.8 -29.89,-25.23 -63.75,-37.76 -101.55,-37.76 -31.54,0 -60.6,9.29 -87.03,27.95 -26.34,18.7 -45.62,43.13 -57.88,73.3 -15.73,38.65 -23.5,81.61 -23.5,128.87 0,46.52 5.73,88.94 17.1,127.23 11.55,38.12 29.41,67.13 53.84,86.59 24.35,19.59 56.02,29.36 94.89,29.36 31.94,0 61.04,-7.15 87.65,-21.41 26.43,-14.35 54.42,-38.92 83.79,-73.92l0 44.69c-28.35,30.43 -58.02,52.46 -88.76,66.19 -30.79,13.73 -66.73,20.52 -107.82,20.52 -54.2,0 -102.22,-11.1 -144.11,-33.31 -42.07,-22.22 -74.5,-54.2 -97.29,-95.74 -22.84,-41.67 -34.17,-85.92 -34.17,-132.96 0,-49.49 12.62,-96.49 37.94,-140.91 25.28,-44.38 59.4,-78.86 102.4,-103.43 42.96,-24.43 88.58,-36.69 137.01,-36.69 35.62,0 73.16,7.95 112.79,23.77 23.01,9.28 37.54,13.81 43.67,13.81 8.04,0 14.97,-2.97 20.83,-8.97 5.91,-6.04 9.6,-15.55 11.38,-28.61l14.57 0z"/>
  </g>
 </g>
</svg>
